Coordinates
version=1
nRows=41
nColumns=15
inDegrees=yes

Units are S.I. units (second, meters, Newtons, ...)
Angles are in degrees.

endheader
time	sacrum_pitch	sacrum_roll	sacrum_yaw	sacrum_x	sacrum_y	sacrum_z	sacroiliac_flx	hip_flx	hip_add	hip_int	knee_flx	ankle_flx	ankle_add	ankle_int
0.00500000	30.00000000	0.00000000	0.00000000	0.08700000	0.06300000	0.00000000	0.00000000	55.61892478	0.00000000	0.00000000	-91.28426757	16.55209845	0.00000000	0.00000000
0.01000000	30.00000000	0.00000000	0.00000000	0.08657069	0.06297919	0.00000000	0.00000000	55.78624592	0.00000000	0.00000000	-91.12875161	16.67429401	0.00000000	0.00000000
0.01500000	30.00000000	0.00000000	0.00000000	0.08609110	0.06298600	0.00000000	0.00000000	55.85524491	0.00000000	0.00000000	-91.00512227	17.02954080	0.00000000	0.00000000
0.02000000	30.00000000	0.00000000	0.00000000	0.08564085	0.06300253	0.00000000	0.00000000	55.98874903	0.00000000	0.00000000	-90.85107198	17.24053525	0.00000000	0.00000000
0.02500000	30.00000000	0.00000000	0.00000000	0.08521000	0.06299887	0.00000000	0.00000000	55.84691896	0.00000000	0.00000000	-90.97781607	17.69380912	0.00000000	0.00000000
0.03000000	30.00000000	0.00000000	0.00000000	0.08471769	0.06300765	0.00000000	0.00000000	55.97909687	0.00000000	0.00000000	-90.93799589	18.06473275	0.00000000	0.00000000
0.03500000	30.00000000	0.00000000	0.00000000	0.08428503	0.06301110	0.00000000	0.00000000	56.07709780	0.00000000	0.00000000	-90.96290583	18.39925422	0.00000000	0.00000000
0.04000000	30.00000000	0.00000000	0.00000000	0.08387228	0.06299208	0.00000000	0.00000000	56.02210325	0.00000000	0.00000000	-91.06491983	18.36649334	0.00000000	0.00000000
0.04500000	30.00000000	0.00000000	0.00000000	0.08347003	0.06297017	0.00000000	0.00000000	56.23029159	0.00000000	0.00000000	-91.19147515	18.69790551	0.00000000	0.00000000
0.05000000	30.00000000	0.00000000	0.00000000	0.08293848	0.06293882	0.00000000	0.00000000	56.20483916	0.00000000	0.00000000	-91.51502631	19.08334274	0.00000000	0.00000000
0.05500000	30.00000000	0.00000000	0.00000000	0.08253026	0.06295344	0.00000000	0.00000000	56.23950229	0.00000000	0.00000000	-91.58884654	19.14809182	0.00000000	0.00000000
0.06000000	30.00000000	0.00000000	0.00000000	0.08205974	0.06292789	0.00000000	0.00000000	56.13889461	0.00000000	0.00000000	-91.65124228	19.28195025	0.00000000	0.00000000
0.06500000	30.00000000	0.00000000	0.00000000	0.08164511	0.06292053	0.00000000	0.00000000	55.89863631	0.00000000	0.00000000	-91.82552199	19.39150925	0.00000000	0.00000000
0.07000000	30.00000000	0.00000000	0.00000000	0.08117510	0.06289644	0.00000000	0.00000000	55.67492695	0.00000000	0.00000000	-92.07760768	19.52471659	0.00000000	0.00000000
0.07500000	30.00000000	0.00000000	0.00000000	0.08079151	0.06288194	0.00000000	0.00000000	55.86713713	0.00000000	0.00000000	-92.06654300	19.62952180	0.00000000	0.00000000
0.08000000	30.00000000	0.00000000	0.00000000	0.08029548	0.06287652	0.00000000	0.00000000	55.47166756	0.00000000	0.00000000	-92.43923612	19.86782640	0.00000000	0.00000000
0.08500000	30.00000000	0.00000000	0.00000000	0.07982765	0.06288464	0.00000000	0.00000000	55.52663483	0.00000000	0.00000000	-92.54059051	20.04368008	0.00000000	0.00000000
0.09000000	30.00000000	0.00000000	0.00000000	0.07942993	0.06284887	0.00000000	0.00000000	55.36341162	0.00000000	0.00000000	-92.49573645	20.16915989	0.00000000	0.00000000
0.09500000	30.00000000	0.00000000	0.00000000	0.07894437	0.06284942	0.00000000	0.00000000	55.36037469	0.00000000	0.00000000	-92.68022212	20.33631781	0.00000000	0.00000000
0.10000000	30.00000000	0.00000000	0.00000000	0.07851315	0.06286882	0.00000000	0.00000000	55.44596621	0.00000000	0.00000000	-92.59470999	20.40710441	0.00000000	0.00000000
0.10500000	30.00000000	0.00000000	0.00000000	0.07808165	0.06285041	0.00000000	0.00000000	55.38183057	0.00000000	0.00000000	-92.63739986	20.45512005	0.00000000	0.00000000
0.11000000	30.00000000	0.00000000	0.00000000	0.07759584	0.06283173	0.00000000	0.00000000	55.41438597	0.00000000	0.00000000	-92.66130615	20.61791280	0.00000000	0.00000000
0.11500000	30.00000000	0.00000000	0.00000000	0.07713916	0.06285304	0.00000000	0.00000000	55.16213604	0.00000000	0.00000000	-92.81559424	20.81499101	0.00000000	0.00000000
0.12000000	30.00000000	0.00000000	0.00000000	0.07669501	0.06280240	0.00000000	0.00000000	55.21120800	0.00000000	0.00000000	-93.05665304	21.05991245	0.00000000	0.00000000
0.12500000	30.00000000	0.00000000	0.00000000	0.07627959	0.06279129	0.00000000	0.00000000	55.37831908	0.00000000	0.00000000	-92.99874116	21.18315128	0.00000000	0.00000000
0.13000000	30.00000000	0.00000000	0.00000000	0.07583895	0.06281458	0.00000000	0.00000000	55.38883373	0.00000000	0.00000000	-93.06704337	21.32527042	0.00000000	0.00000000
0.13500000	30.00000000	0.00000000	0.00000000	0.07541463	0.06282074	0.00000000	0.00000000	55.27254369	0.00000000	0.00000000	-93.03193151	21.37557722	0.00000000	0.00000000
0.14000000	30.00000000	0.00000000	0.00000000	0.07499161	0.06274884	0.00000000	0.00000000	55.59404167	0.00000000	0.00000000	-92.94166768	21.52060068	0.00000000	0.00000000
0.14500000	30.00000000	0.00000000	0.00000000	0.07457356	0.06282097	0.00000000	0.00000000	55.45686917	0.00000000	0.00000000	-93.02066266	21.67144092	0.00000000	0.00000000
0.15000000	30.00000000	0.00000000	0.00000000	0.07402266	0.06278881	0.00000000	0.00000000	55.44225953	0.00000000	0.00000000	-92.95536198	21.80096671	0.00000000	0.00000000
0.15500000	30.00000000	0.00000000	0.00000000	0.07366637	0.06276428	0.00000000	0.00000000	55.55178356	0.00000000	0.00000000	-93.10386572	22.00844231	0.00000000	0.00000000
0.16000000	30.00000000	0.00000000	0.00000000	0.07314047	0.06274167	0.00000000	0.00000000	55.82628480	0.00000000	0.00000000	-93.08040070	22.17420437	0.00000000	0.00000000
0.16500000	30.00000000	0.00000000	0.00000000	0.07270749	0.06275035	0.00000000	0.00000000	55.81074964	0.00000000	0.00000000	-92.99658290	22.31645072	0.00000000	0.00000000
0.17000000	30.00000000	0.00000000	0.00000000	0.07231249	0.06273244	0.00000000	0.00000000	55.87945496	0.00000000	0.00000000	-92.99008492	22.50438942	0.00000000	0.00000000
0.17500000	30.00000000	0.00000000	0.00000000	0.07183331	0.06273798	0.00000000	0.00000000	55.80767375	0.00000000	0.00000000	-93.01588076	22.59718380	0.00000000	0.00000000
0.18000000	30.00000000	0.00000000	0.00000000	0.07140044	0.06273212	0.00000000	0.00000000	56.03149725	0.00000000	0.00000000	-92.95430410	22.67140634	0.00000000	0.00000000
0.18500000	30.00000000	0.00000000	0.00000000	0.07099029	0.06273915	0.00000000	0.00000000	55.97722394	0.00000000	0.00000000	-92.85771896	22.53829784	0.00000000	0.00000000
0.19000000	30.00000000	0.00000000	0.00000000	0.07053167	0.06270032	0.00000000	0.00000000	55.95683781	0.00000000	0.00000000	-92.79084230	22.66767197	0.00000000	0.00000000
0.19500000	30.00000000	0.00000000	0.00000000	0.07010104	0.06272719	0.00000000	0.00000000	56.17718738	0.00000000	0.00000000	-92.71250665	22.79293316	0.00000000	0.00000000
0.20000000	30.00000000	0.00000000	0.00000000	0.06969753	0.06270761	0.00000000	0.00000000	56.18863463	0.00000000	0.00000000	-92.65247493	22.96234762	0.00000000	0.00000000
0.20500000	30.00000000	0.00000000	0.00000000	0.06919823	0.06265328	0.00000000	0.00000000	56.43341830	0.00000000	0.00000000	-92.74266977	23.19152437	0.00000000	0.00000000
